<svg xmlns="http://www.w3.org/2000/svg"><symbol id="icon-no" viewBox="0 0 26.752 26.752"><path d="M15.497 13.376L26.312 2.562A1.5 1.5 0 1 0 24.191.441L13.376 11.255 2.562.439A1.5 1.5 0 1 0 .441 2.56l10.814 10.815L.439 24.19a1.5 1.5 0 1 0 2.122 2.121l10.815-10.814L24.19 26.312c.293.293.677.439 1.061.439s.768-.146 1.061-.439a1.5 1.5 0 0 0 0-2.121L15.497 13.376z"/></symbol><symbol id="icon-review-arrow-left" viewBox="0 0 21.706 41.719"><path d="M2.045 20.859L21.458 1.446A.847.847 0 0 0 20.261.248L.248 20.261a.846.846 0 0 0 0 1.197l20.013 20.013a.843.843 0 0 0 1.198 0 .847.847 0 0 0 0-1.198L2.045 20.859z"/></symbol><symbol id="icon-review-arrow-right" viewBox="0 0 21.706 41.719"><path d="M19.661 20.859L.248 1.446A.847.847 0 0 1 1.445.248L21.458 20.26c.33.33.33.867 0 1.197L1.445 41.471a.843.843 0 0 1-1.198 0 .847.847 0 0 1 0-1.198l19.414-19.414z"/></symbol><symbol id="icon-yes" viewBox="-82.357 4.875 21.698 16.09"><path d="M-60.953 5.167a.999.999 0 0 0-1.414 0L-75.75 18.551l-4.9-4.9a.999.999 0 1 0-1.414 1.414l5.607 5.607a.997.997 0 0 0 1.414 0l14.09-14c.391-.481.391-1.114 0-1.505z"/></symbol></svg>